<svg xmlns="http://www.w3.org/2000/svg" viewBox="0 0 151.41 28.8"><path d="M2.15,4.81H4.31v21H15.78v2H2.15Z" transform="translate(-2.15 -4.81)"/><path d="M20.47,27a7,7,0,0,1-2.64-3,10.24,10.24,0,0,1-.95-4.55v0a10.16,10.16,0,0,1,.95-4.54,7,7,0,0,1,2.64-3,7.44,7.44,0,0,1,3.93-1,7.41,7.41,0,0,1,4,1,7.17,7.17,0,0,1,2.65,3A10.15,10.15,0,0,1,32,19.45v0A10.15,10.15,0,0,1,31,24a7.21,7.21,0,0,1-2.64,3,7.3,7.3,0,0,1-3.94,1.05A7.47,7.47,0,0,1,20.47,27Zm6.79-1.61a5.18,5.18,0,0,0,1.88-2.31,8.88,8.88,0,0,0,.67-3.59v0a8.81,8.81,0,0,0-.67-3.59,4.94,4.94,0,0,0-4.74-3.07,5,5,0,0,0-2.81.79,5.25,5.25,0,0,0-1.89,2.29A8.67,8.67,0,0,0,19,19.45v0a8.71,8.71,0,0,0,.67,3.59,5.2,5.2,0,0,0,1.89,2.31,5,5,0,0,0,2.84.79A5,5,0,0,0,27.26,25.38Z" transform="translate(-2.15 -4.81)"/><path d="M38.21,33.05a6.33,6.33,0,0,1-2.34-1.52,4.71,4.71,0,0,1-1.18-2.13l0-.13h2.12l.06.15a3.48,3.48,0,0,0,1.65,1.66,6.56,6.56,0,0,0,3.12.66,5.25,5.25,0,0,0,3.7-1.24,4.4,4.4,0,0,0,1.32-3.36V24.22h-.06a5.73,5.73,0,0,1-1.25,1.93,5.89,5.89,0,0,1-1.93,1.31,6.12,6.12,0,0,1-2.45.48,6.37,6.37,0,0,1-3.66-1.06,6.92,6.92,0,0,1-2.47-3,10.8,10.8,0,0,1-.88-4.49v0a10.4,10.4,0,0,1,.9-4.47,7.12,7.12,0,0,1,2.48-3A6.47,6.47,0,0,1,41,10.91a5.88,5.88,0,0,1,2.44.5,6.17,6.17,0,0,1,1.9,1.36,6.33,6.33,0,0,1,1.26,2h.06V11.21h2.09V27.33a6.29,6.29,0,0,1-.86,3.32,5.72,5.72,0,0,1-2.45,2.18,8.5,8.5,0,0,1-3.78.78A9.52,9.52,0,0,1,38.21,33.05Zm5.89-7.82A5.64,5.64,0,0,0,46,22.9a8.57,8.57,0,0,0,.66-3.48v0A8.49,8.49,0,0,0,46,15.93a5.61,5.61,0,0,0-1.86-2.32,4.74,4.74,0,0,0-2.75-.82,4.8,4.8,0,0,0-2.79.82,5.24,5.24,0,0,0-1.84,2.3,8.73,8.73,0,0,0-.65,3.49v0a8.83,8.83,0,0,0,.65,3.51,5.22,5.22,0,0,0,1.84,2.31,4.8,4.8,0,0,0,2.79.82A4.75,4.75,0,0,0,44.1,25.23Z" transform="translate(-2.15 -4.81)"/><path d="M54.36,27.44a4.68,4.68,0,0,1-1.93-1.72,4.73,4.73,0,0,1-.69-2.55v0a4.08,4.08,0,0,1,1.54-3.35,7.7,7.7,0,0,1,4.39-1.41l6.2-.39v1.63l-5.94.4a5.55,5.55,0,0,0-3,.95,2.57,2.57,0,0,0-1.06,2.17v0a2.68,2.68,0,0,0,1.05,2.2,4.22,4.22,0,0,0,2.72.83,5.57,5.57,0,0,0,2.63-.61,4.77,4.77,0,0,0,1.86-1.67,4.31,4.31,0,0,0,.69-2.39V16.62a3.68,3.68,0,0,0-1.07-2.81,4.2,4.2,0,0,0-3-1,5,5,0,0,0-2.94.81,3.43,3.43,0,0,0-1.4,2.22l0,.16h-2v-.19a5.15,5.15,0,0,1,1-2.52,5.39,5.39,0,0,1,2.2-1.73,7.74,7.74,0,0,1,3.24-.63,7.29,7.29,0,0,1,3.26.68,5.1,5.1,0,0,1,2.14,1.91,5.58,5.58,0,0,1,.75,2.93V27.75h-2.1v-3h0a5,5,0,0,1-1.28,1.75,6.36,6.36,0,0,1-1.94,1.17,6.45,6.45,0,0,1-2.32.42A6.55,6.55,0,0,1,54.36,27.44Z" transform="translate(-2.15 -4.81)"/><path d="M68.45,11.21h2.1V14h0a5.43,5.43,0,0,1,2-2.23A6,6,0,0,1,76,10.93a5.56,5.56,0,0,1,4.29,1.65,6.45,6.45,0,0,1,1.55,4.58V27.75h-2.1V17.51A5,5,0,0,0,78.57,14a4.13,4.13,0,0,0-3.22-1.21,4.83,4.83,0,0,0-2.53.65,4.49,4.49,0,0,0-1.68,1.8A6,6,0,0,0,70.55,18v9.8h-2.1Z" transform="translate(-2.15 -4.81)"/><path d="M98.33,6.76H90.75V4.81h17.33v2H100.5v21H98.33Z" transform="translate(-2.15 -4.81)"/><path d="M109.22,27a7,7,0,0,1-2.64-3,10.24,10.24,0,0,1-1-4.55v0a10.16,10.16,0,0,1,1-4.54,7,7,0,0,1,2.64-3,8,8,0,0,1,7.88,0,7.17,7.17,0,0,1,2.65,3,10.15,10.15,0,0,1,1,4.55v0a10.15,10.15,0,0,1-1,4.55,7.21,7.21,0,0,1-2.64,3,7.32,7.32,0,0,1-3.94,1.05A7.47,7.47,0,0,1,109.22,27ZM116,25.38a5.18,5.18,0,0,0,1.88-2.31,8.89,8.89,0,0,0,.66-3.59v0a8.82,8.82,0,0,0-.66-3.59,4.94,4.94,0,0,0-4.74-3.07,5,5,0,0,0-2.82.79,5.3,5.3,0,0,0-1.88,2.29,8.67,8.67,0,0,0-.67,3.58v0a8.71,8.71,0,0,0,.67,3.59,5.25,5.25,0,0,0,1.88,2.31,5.08,5.08,0,0,0,2.85.79A5,5,0,0,0,116,25.38Z" transform="translate(-2.15 -4.81)"/><path d="M123.64,4.81h2.1V27.75h-2.1Z" transform="translate(-2.15 -4.81)"/><path d="M132.19,27a6.9,6.9,0,0,1-2.6-3,10.39,10.39,0,0,1-.91-4.52v0a10.53,10.53,0,0,1,.91-4.53,7.08,7.08,0,0,1,2.57-3,7.57,7.57,0,0,1,7.69,0,6.76,6.76,0,0,1,2.49,2.88,10,10,0,0,1,.88,4.34V20H129.73V18.32h12.48l-1.07,1.51V19a8,8,0,0,0-.66-3.43,4.84,4.84,0,0,0-1.81-2.11,5,5,0,0,0-2.66-.71,4.81,4.81,0,0,0-4.54,2.87,7.75,7.75,0,0,0-.68,3.38v.79a7.88,7.88,0,0,0,.68,3.43,4.93,4.93,0,0,0,1.9,2.17,5.46,5.46,0,0,0,2.88.74,5.9,5.9,0,0,0,2.16-.37A4.31,4.31,0,0,0,140,24.74a3.92,3.92,0,0,0,.9-1.59l0-.14H143l0,.16a5.76,5.76,0,0,1-.81,1.95,5.84,5.84,0,0,1-1.47,1.55,6.79,6.79,0,0,1-2,1,8.21,8.21,0,0,1-2.48.36A7.53,7.53,0,0,1,132.19,27Z" transform="translate(-2.15 -4.81)"/><path d="M146,11.21h2v2.9h0a4.54,4.54,0,0,1,1.54-2.34,4.2,4.2,0,0,1,2.64-.86A3.74,3.74,0,0,1,153,11a4.62,4.62,0,0,1,.54.12v2.05a2.59,2.59,0,0,0-.62-.16,5.58,5.58,0,0,0-1-.07,3.6,3.6,0,0,0-2,.57,3.78,3.78,0,0,0-1.34,1.58,5.52,5.52,0,0,0-.46,2.34V27.75H146Z" transform="translate(-2.15 -4.81)"/></svg>